<svg fill="none" height="60" viewBox="0 0 87 60" width="87" xmlns="http://www.w3.org/2000/svg"><path d="m53.1504 30.3403 14.8298 14.8332-14.8298 14.8265z" fill="#f88f2d"/><path d="m61.7891 30.2223-15.1128-15.1128 15.1095-15.1095z" fill="#e33923"/><path d="m81.635 30.5587-8.7928-8.7726h-4.8277v17.2622h4.959v-8.8434l8.8636 8.8434h4.7097v-17.2622h-4.9118zm-48.5491 8.4896h13.681v-4.6188h-8.3683v-1.927h8.3683v-4.1572h-8.3683v-1.9977h8.3683v-4.5615h-13.681zm-6.8119 0v-12.7007h5.4037v-4.5615h-16.0595v4.5615h5.3464v12.6973h5.3094zm-10.9119-4.7906c.4144-4.5716-3.9584-5.3666-7.32056-6.4076-.52218-.1583-2.34475-.5761-2.28074-1.2701.05054-.566 1.22628-.63 2.09882-.5761 2.66478.1651 4.48398.9096 6.36048 1.7316v-4.9084c-1.5935-.7412-3.4531-1.2196-5.6429-1.388h-1.67771c-3.77316.3167-6.62661 1.516-6.89949 5.1982v.2863c.286356 3.2679 2.70522 4.4638 5.58225 5.3094.85907.2527 4.11679.8658 4.07973 1.7923-.01348.4211-.75126.694-1.32061.7512-3.34531.3302-6.36383-1.1926-8.34137-2.4256v5.1949c4.66591 3.0016 14.8265 2.6109 15.3621-3.2881z" fill="#21145f"/></svg>